HIERARCHY
ROOT Hips
{
	OFFSET	0.000000	0.000000	0.000000
	CHANNELS 6 Xposition Yposition Zposition Zrotation Xrotation Yrotation
	JOINT LeftUpLeg
	{
		OFFSET	12.830505	-7.049846	-1.643436
		CHANNELS 3 Zrotation Xrotation Yrotation
		JOINT LeftLeg
		{
			OFFSET	0.620834	-39.957500	-1.919341
			CHANNELS 3 Zrotation Xrotation Yrotation
			JOINT LeftFoot
			{
				OFFSET	-0.413890	-44.704761	-3.870325
				CHANNELS 3 Zrotation Xrotation Yrotation
				JOINT LeftFootHeel
				{
					OFFSET	0.164738	-8.918193	-6.555130
					CHANNELS 3 Zrotation Xrotation Yrotation
					End Site
					{
						OFFSET	-0.604053	0.000000	21.044330
					}
				}
			}
		}
	}
	JOINT RightUpLeg
	{
		OFFSET	-12.830505	-7.049846	-1.643436
		CHANNELS 3 Zrotation Xrotation Yrotation
		JOINT RightLeg
		{
			OFFSET	-0.620834	-39.957500	-1.919341
			CHANNELS 3 Zrotation Xrotation Yrotation
			JOINT RightFoot
			{
				OFFSET	0.413890	-44.704761	-3.870325
				CHANNELS 3 Zrotation Xrotation Yrotation
				JOINT RightFootHeel
				{
					OFFSET	-0.164738	-8.918193	-6.555130
					CHANNELS 3 Zrotation Xrotation Yrotation
					End Site
					{
						OFFSET	0.604053	0.000000	21.044330
					}
				}
			}
		}
	}
	JOINT Spine
	{
		OFFSET	0.000000	12.498170	1.820647
		CHANNELS 3 Zrotation Xrotation Yrotation
		JOINT Spine1
		{
			OFFSET	0.000000	7.620000	0.000000
			CHANNELS 3 Zrotation Xrotation Yrotation
			JOINT LeftShoulder
			{
				OFFSET	9.167800	29.136339	-5.551221
				CHANNELS 3 Zrotation Xrotation Yrotation
				JOINT LeftArm
				{
					OFFSET	12.133453	-3.880866	1.461963
					CHANNELS 3 Zrotation Xrotation Yrotation
					JOINT LeftForeArm
					{
						OFFSET	2.507115	-31.664908	-1.069404
						CHANNELS 3 Zrotation Xrotation Yrotation
						JOINT LeftHand
						{
							OFFSET	4.116172	-24.512624	5.009439
							CHANNELS 3 Zrotation Xrotation Yrotation
							End Site
							{
								OFFSET	-0.213136	-10.931856	2.182134
							}
						}
					}
				}
			}
			JOINT RightShoulder
			{
				OFFSET	-9.167800	29.136339	-5.551221
				CHANNELS 3 Zrotation Xrotation Yrotation
				JOINT RightArm
				{
					OFFSET	-12.133453	-3.880866	1.461963
					CHANNELS 3 Zrotation Xrotation Yrotation
					JOINT RightForeArm
					{
						OFFSET	-2.507115	-31.664908	-1.069404
						CHANNELS 3 Zrotation Xrotation Yrotation
						JOINT RightHand
						{
							OFFSET	-4.116172	-24.512624	5.009439
							CHANNELS 3 Zrotation Xrotation Yrotation
							End Site
							{
								OFFSET	0.213136	-10.931856	2.182134
							}
						}
					}
				}
			}
			JOINT Neck
			{
				OFFSET	0.000000	32.926272	-3.635654
				CHANNELS 3 Zrotation Xrotation Yrotation
				JOINT Head
				{
					OFFSET	0.000000	12.481178	4.646143
					CHANNELS 3 Zrotation Xrotation Yrotation
					End Site
					{
						OFFSET	0.000000	17.715204	-2.222063
					}
				}
			}
		}
	}
}
MOTION
Frames:     15
Frame Time: 0.016667
0.000000	103.219434	0.000000	0.077986	0.064387	0.903577	-0.775273	-2.043295	-0.161161	0.945899	2.217853	-0.855099	-0.251078	-0.239657	0.077979	0.	0.	0.	0.014758	-0.980827	-0.707311	-0.015371	0.807551	0.280979	-0.089167	0.109337	-0.476905	0.	0.	0.	-0.000000	0.000000	-0.000000	0.033214	-0.140260	-0.032928	0.574610	0.984608	0.425818	-0.735272	0.082854	0.066275	-0.150588	-2.540460	-3.998251	6.759997	0.260974	-6.347562	-0.843594	1.505537	0.231854	0.050883	-0.765627	1.134718	0.130485	-0.930695	1.470675	-0.334305	-0.264294	0.878907	-0.195191	1.885823	0.312381	0.289852	-0.636135	-0.094336	
-0.001188	103.219938	-0.009986	0.078873	0.065135	0.913940	-0.782746	-2.061829	-0.168216	0.952195	2.235751	-0.858948	-0.251078	-0.239657	0.077979	0.	0.	0.	0.014391	-0.990664	-0.719324	-0.014714	0.814744	0.289885	-0.090647	0.111255	-0.484168	0.	0.	0.	-0.000000	0.000000	-0.000001	0.027792	-0.137949	-0.031744	0.580363	0.983234	0.425390	-0.736654	0.080956	0.058599	-0.150411	-2.540193	-4.001723	6.778999	0.266730	-6.304733	-0.843061	1.505474	0.225907	0.055066	-0.768460	1.129174	0.131338	-0.941669	1.471235	-0.324039	-0.260182	0.882821	-0.192098	1.892163	0.303649	0.293232	-0.639251	-0.097907	
-0.002269	103.220636	-0.022294	0.080591	0.066576	0.933961	-0.791465	-2.081023	-0.184915	0.958540	2.253764	-0.862831	-0.251078	-0.239657	0.077979	0.	0.	0.	0.013026	-1.001475	-0.741074	-0.014044	0.822179	0.299041	-0.092162	0.113221	-0.491604	0.	0.	0.	0.000000	0.000001	0.000000	0.015789	-0.139132	-0.032680	0.591576	0.984563	0.416721	-0.737324	0.079341	0.048125	-0.150411	-2.540193	-4.001723	6.821162	0.263137	-6.281888	-0.840627	1.511092	0.217801	0.059150	-0.774625	1.122905	0.137353	-0.983451	1.476625	-0.341712	-0.222300	0.907856	-0.184952	1.911334	0.290414	0.298501	-0.652177	-0.104440	
-0.006217	103.221983	-0.050712	0.082215	0.067942	0.952926	-0.811863	-2.134212	-0.194271	0.984298	2.299466	-0.875269	-0.258608	-0.233484	0.078954	0.	0.	0.	0.013228	-1.031206	-0.765201	-0.011855	0.844419	0.327542	-0.096904	0.119402	-0.514961	0.	0.	0.	-0.000000	-0.000000	0.000001	0.003702	-0.136218	-0.038462	0.593837	0.985803	0.423754	-0.728976	0.073911	0.028002	-0.150411	-2.540193	-4.001723	6.838676	0.256400	-6.272645	-0.852687	1.523834	0.235158	0.065353	-0.793737	1.111161	0.150085	-1.003425	1.488797	-0.362388	-0.207010	0.927620	-0.222956	1.902629	0.284108	0.352895	-0.626990	-0.112561	
-0.008827	103.222961	-0.070662	0.083717	0.069202	0.970458	-0.825102	-2.167141	-0.205922	0.995515	2.331335	-0.882152	-0.258608	-0.233484	0.078954	0.	0.	0.	0.012817	-1.051095	-0.786134	-0.010232	0.858784	0.347190	-0.100199	0.123714	-0.531224	0.	0.	0.	0.000000	0.000000	-0.000000	-0.008221	-0.121480	-0.052390	0.600195	0.971595	0.424944	-0.724428	0.075967	0.023722	-0.152034	-2.544592	-3.991532	6.835200	0.238329	-6.274732	-0.855756	1.519604	0.249836	0.071071	-0.804619	1.118524	0.151848	-1.002905	1.494660	-0.368881	-0.211929	0.919838	-0.234463	1.908572	0.243841	0.379482	-0.632736	-0.077262	
-0.012644	103.224357	-0.099517	0.085716	0.070881	0.993804	-0.838963	-2.199992	-0.223504	1.006609	2.362807	-0.888933	-0.258608	-0.233484	0.078954	0.	0.	0.	0.012459	-1.080439	-0.814538	-0.008012	0.880365	0.375444	-0.104896	0.129863	-0.554441	0.	0.	0.	-0.000000	0.000000	0.000000	-0.025632	-0.098724	-0.070287	0.609927	0.960818	0.427163	-0.716453	0.087992	0.029150	-0.157540	-2.571472	-3.980647	6.826531	0.188796	-6.282134	-0.853323	1.519850	0.264705	0.069770	-0.805390	1.147636	0.159183	-1.031555	1.479810	-0.371537	-0.209757	0.901310	-0.213515	1.937504	0.247408	0.369440	-0.653902	-0.079203	
-0.015312	103.225306	-0.119473	0.086944	0.071921	1.008116	-0.857734	-2.249699	-0.228851	1.023809	2.411597	-0.899457	-0.258608	-0.233484	0.078954	0.	0.	0.	0.012449	-1.101322	-0.832450	-0.006658	0.896127	0.394592	-0.108035	0.133991	-0.570007	0.	0.	0.	-0.000000	0.000001	0.000000	-0.036717	-0.082775	-0.080925	0.615059	0.962820	0.430488	-0.710907	0.086630	0.039201	-0.161051	-2.589907	-3.980836	6.818294	0.161909	-6.268841	-0.849091	1.526919	0.272591	0.063234	-0.798195	1.157457	0.171077	-1.075332	1.459059	-0.372175	-0.197447	0.900603	-0.209171	1.949911	0.252572	0.370588	-0.659838	-0.081622	
-0.018040	103.226236	-0.140384	0.088124	0.072912	1.021931	-0.871052	-2.283782	-0.236581	1.035542	2.444843	-0.906630	-0.258608	-0.233484	0.078954	0.	0.	0.	0.012610	-1.123880	-0.850219	-0.005609	0.913789	0.413399	-0.111028	0.137937	-0.584872	0.	0.	0.	-0.000000	0.000001	0.000000	-0.047343	-0.066268	-0.091047	0.619234	0.967089	0.434643	-0.704745	0.082843	0.047985	-0.164605	-2.608649	-3.980987	6.823800	0.145910	-6.258043	-0.845709	1.535344	0.281372	0.060770	-0.795972	1.147522	0.178781	-1.103583	1.456406	-0.377856	-0.198822	0.912742	-0.205479	1.962993	0.258094	0.371477	-0.666585	-0.083926	
-0.019571	103.226760	-0.152807	0.088698	0.073396	1.028626	-0.877828	-2.301217	-0.240149	1.041548	2.461865	-0.910318	-0.258608	-0.233484	0.078954	0.	0.	0.	0.012940	-1.138237	-0.859440	-0.005504	0.925882	0.422706	-0.112397	0.139731	-0.591646	0.	0.	0.	-0.000000	0.000001	0.000001	-0.049551	-0.058788	-0.096415	0.618382	0.970786	0.437129	-0.701788	0.080976	0.053332	-0.167489	-2.622102	-3.982562	6.829637	0.142585	-6.255323	-0.847306	1.541111	0.286693	0.060501	-0.797011	1.139395	0.180068	-1.106533	1.464005	-0.382162	-0.210337	0.918625	-0.207341	1.973446	0.262342	0.372014	-0.673238	-0.085588	
-0.024141	103.228281	-0.195378	0.089808	0.074336	1.041580	-0.895990	-2.349462	-0.244425	1.058287	2.509282	-0.920572	-0.258608	-0.233484	0.078954	0.	0.	0.	0.015651	-1.193780	-0.882363	-0.008693	0.978010	0.441995	-0.114264	0.142187	-0.600908	0.	0.	0.	0.000000	0.000000	0.000000	-0.051780	-0.035397	-0.105819	0.610386	0.983454	0.447046	-0.690263	0.092272	0.085454	-0.182454	-2.695232	-4.007726	6.836720	0.145995	-6.270784	-0.856112	1.558947	0.303567	0.058815	-0.807797	1.135072	0.181353	-1.110584	1.488229	-0.379594	-0.226567	0.910070	-0.203078	2.005232	0.276454	0.359516	-0.693886	-0.087034	
-0.026781	103.229182	-0.223470	0.090351	0.074790	1.047922	-0.906020	-2.376325	-0.245935	1.067635	2.535737	-0.926293	-0.258608	-0.233484	0.078954	0.	0.	0.	0.017832	-1.232686	-0.895739	-0.012276	1.016419	0.449097	-0.114264	0.142187	-0.600908	0.	0.	0.	-0.000000	-0.000000	0.000000	-0.051621	-0.017911	-0.109757	0.602780	0.991540	0.454676	-0.681779	0.098342	0.105968	-0.194925	-2.752637	-4.029515	6.836544	0.134182	-6.276459	-0.863162	1.568022	0.314214	0.059913	-0.832763	1.152215	0.181520	-1.083073	1.467336	-0.376181	-0.256354	0.900352	-0.200865	2.017670	0.307998	0.357022	-0.700265	-0.100029	
-0.029110	103.229909	-0.247428	0.090617	0.075014	1.051063	-0.914748	-2.400497	-0.244690	1.076082	2.559683	-0.931487	-0.258608	-0.233484	0.078954	0.	0.	0.	0.019989	-1.266411	-0.904979	-0.015411	1.049879	0.455259	-0.114264	0.142187	-0.600908	0.	0.	0.	0.000000	-0.000000	0.000001	-0.057472	0.000507	-0.109538	0.600883	0.998989	0.462023	-0.670782	0.105441	0.104554	-0.212925	-2.828764	-4.043034	6.835740	0.122722	-6.267040	-0.863683	1.575512	0.323453	0.059233	-0.850858	1.169113	0.182596	-1.029153	1.433131	-0.391082	-0.307128	0.897017	-0.192101	2.030935	0.340603	0.355359	-0.706648	-0.111955	
-0.029987	103.230287	-0.258234	0.091154	0.075470	1.057315	-0.919521	-2.412232	-0.248885	1.080104	2.571044	-0.933942	-0.258608	-0.233484	0.078954	0.	0.	0.	0.020317	-1.280469	-0.913698	-0.016684	1.063470	0.457748	-0.114264	0.142187	-0.600908	0.	0.	0.	-0.000000	0.000001	-0.000001	-0.054674	0.015317	-0.114104	0.593648	0.996804	0.465935	-0.665211	0.110890	0.107799	-0.219740	-2.858498	-4.042238	6.834435	0.108387	-6.273234	-0.870007	1.573080	0.327855	0.049962	-0.835559	1.191713	0.191983	-1.035584	1.402772	-0.412090	-0.308450	0.890154	-0.190939	2.045732	0.377436	0.348014	-0.720034	-0.140324	
-0.030440	103.230732	-0.267145	0.092558	0.076652	1.073730	-0.923616	-2.418819	-0.264302	1.089449	2.570524	-0.936414	-0.266039	-0.227406	0.079907	0.	0.	0.	0.019672	-1.289250	-0.923529	-0.017833	1.071073	0.451188	-0.114264	0.142187	-0.600908	0.	0.	0.	0.000000	0.000001	0.000001	-0.052577	0.030187	-0.128750	0.576461	1.019836	0.482722	-0.645181	0.129238	0.101717	-0.236696	-2.921742	-3.972190	6.813488	0.033611	-6.262671	-0.878861	1.597243	0.349810	0.043092	-0.843273	1.185064	0.198803	-1.047742	1.398498	-0.403797	-0.304746	0.882803	-0.193271	2.066057	0.409049	0.328946	-0.697442	-0.152191	
-0.030340	103.230868	-0.268661	0.093159	0.077161	1.080757	-0.924524	-2.419203	-0.271344	1.089449	2.570524	-0.936414	-0.266039	-0.227406	0.079907	0.	0.	0.	0.018903	-1.289750	-0.930558	-0.017833	1.071073	0.451188	-0.114264	0.142187	-0.600908	0.	0.	0.	-0.000000	0.000001	0.000000	-0.049530	0.046316	-0.133943	0.572876	1.003189	0.481051	-0.644082	0.147911	0.118166	-0.241708	-2.942184	-3.962606	6.800148	0.016512	-6.217117	-0.885551	1.611182	0.366938	0.036589	-0.839494	1.162037	0.202493	-1.061922	1.421296	-0.387984	-0.301326	0.872650	-0.207008	2.101865	0.420594	0.327388	-0.712022	-0.151134	
